<svg xmlns="http://www.w3.org/2000/svg" version="1.1" xmlns:xlink="http://www.w3.org/1999/xlink" xmlns:svgjs="http://svgjs.dev/svgjs" width="1500" height="1500" viewBox="0 0 1500 1500"><rect width="1500" height="1500" fill="#54cce3"></rect><g transform="matrix(0.6666666666666666,0,0,0.6666666666666666,249.39393939393938,435.99032258064517)"><svg viewBox="0 0 396 248" data-background-color="#54cce3" preserveAspectRatio="xMidYMid meet" height="939" width="1500" xmlns="http://www.w3.org/2000/svg" xmlns:xlink="http://www.w3.org/1999/xlink"><g id="tight-bounds" transform="matrix(1,0,0,1,0.2400000000000091,0.4000000000000057)"><svg viewBox="0 0 395.52 247.2" height="247.2" width="395.52"><g><svg></svg></g><g><svg viewBox="0 0 395.52 247.2" height="247.2" width="395.52"><g transform="matrix(1,0,0,1,75.54432000000001,86.39048021490007)"><svg viewBox="0 0 244.43135999999996 74.41903957019984" height="74.41903957019984" width="244.43135999999996"><g><svg viewBox="0 0 244.43135999999996 74.41903957019984" height="74.41903957019984" width="244.43135999999996"><g><svg viewBox="0 0 411.4398336350124 125.26607576065703" height="74.41903957019984" width="244.43135999999996"><g transform="matrix(1,0,0,1,167.00847363501245,0)"><svg viewBox="0 0 244.43135999999998 125.26607576065703" height="125.26607576065703" width="244.43135999999998"><g id="textblocktransform"><svg viewBox="0 0 244.43135999999998 125.26607576065703" height="125.26607576065703" width="244.43135999999998" id="textblock"><g><svg viewBox="0 0 244.43135999999998 67.56253560299417" height="67.56253560299417" width="244.43135999999998"><g transform="matrix(1,0,0,1,0,0)"><svg width="244.43135999999998" viewBox="1.95 -38.01 176.11 48.68" height="67.56253560299417" data-palette-color="#ffffff"><path d="M14.6-15.84L14.6-15.84Q8.57-17.58 5.82-20.1 3.08-22.63 3.08-26.34L3.08-26.34Q3.08-30.54 6.43-33.29 9.79-36.04 15.16-36.04L15.16-36.04Q18.82-36.04 21.69-34.62 24.56-33.2 26.14-30.71 27.71-28.22 27.71-25.27L27.71-25.27 23-25.27Q23-28.49 20.95-30.33 18.9-32.18 15.16-32.18L15.16-32.18Q11.69-32.18 9.75-30.65 7.81-29.13 7.81-26.42L7.81-26.42Q7.81-24.24 9.66-22.74 11.5-21.24 15.93-20 20.36-18.75 22.86-17.25 25.37-15.75 26.57-13.75 27.78-11.74 27.78-9.03L27.78-9.03Q27.78-4.71 24.41-2.11 21.04 0.49 15.41 0.49L15.41 0.49Q11.74 0.49 8.57-0.92 5.4-2.32 3.67-4.76 1.95-7.2 1.95-10.3L1.95-10.3 6.67-10.3Q6.67-7.08 9.05-5.21 11.43-3.34 15.41-3.34L15.41-3.34Q19.12-3.34 21.09-4.86 23.07-6.37 23.07-8.98 23.07-11.6 21.24-13.02 19.41-14.45 14.6-15.84ZM34.69-32.81L39.21-32.81 39.21-26.42 44.14-26.42 44.14-22.92 39.21-22.92 39.21-6.54Q39.21-4.96 39.87-4.16 40.52-3.37 42.11-3.37L42.11-3.37Q42.89-3.37 44.26-3.66L44.26-3.66 44.26 0Q42.48 0.49 40.79 0.49L40.79 0.49Q37.77 0.49 36.23-1.34 34.69-3.17 34.69-6.54L34.69-6.54 34.69-22.92 29.88-22.92 29.88-26.42 34.69-26.42 34.69-32.81ZM47.72-13.13L47.72-13.45Q47.72-17.33 49.25-20.43 50.78-23.54 53.5-25.22 56.22-26.9 59.71-26.9L59.71-26.9Q65.11-26.9 68.44-23.17 71.77-19.43 71.77-13.23L71.77-13.23 71.77-12.92Q71.77-9.06 70.3-5.99 68.82-2.93 66.07-1.22 63.33 0.49 59.76 0.49L59.76 0.49Q54.39 0.49 51.06-3.25 47.72-6.98 47.72-13.13L47.72-13.13ZM52.27-12.92L52.27-12.92Q52.27-8.52 54.3-5.86 56.34-3.2 59.76-3.2L59.76-3.2Q63.2-3.2 65.23-5.9 67.26-8.59 67.26-13.45L67.26-13.45Q67.26-17.8 65.19-20.5 63.13-23.19 59.71-23.19L59.71-23.19Q56.37-23.19 54.32-20.53 52.27-17.87 52.27-12.92ZM88.03-3.2L88.03-3.2Q90.45-3.2 92.25-4.66 94.06-6.13 94.26-8.33L94.26-8.33 98.53-8.33Q98.41-6.05 96.97-4 95.52-1.95 93.12-0.73 90.72 0.49 88.03 0.49L88.03 0.49Q82.63 0.49 79.45-3.11 76.26-6.71 76.26-12.96L76.26-12.96 76.26-13.72Q76.26-17.58 77.68-20.58 79.09-23.58 81.74-25.24 84.39-26.9 88.01-26.9L88.01-26.9Q92.45-26.9 95.39-24.24 98.33-21.58 98.53-17.33L98.53-17.33 94.26-17.33Q94.06-19.9 92.31-21.55 90.57-23.19 88.01-23.19L88.01-23.19Q84.56-23.19 82.67-20.72 80.78-18.24 80.78-13.55L80.78-13.55 80.78-12.7Q80.78-8.13 82.66-5.66 84.54-3.2 88.03-3.2ZM120.18 0L110.98-12.23 108.14-9.28 108.14 0 103.63 0 103.63-37.5 108.14-37.5 108.14-14.82 110.56-17.72 118.79-26.42 124.28-26.42 114-15.38 125.48 0 120.18 0ZM133.85-26.42L133.85 0 129.33 0 129.33-26.42 133.85-26.42ZM128.97-33.42L128.97-33.42Q128.97-34.52 129.64-35.28 130.31-36.04 131.63-36.04 132.95-36.04 133.63-35.28 134.31-34.52 134.31-33.42 134.31-32.32 133.63-31.59 132.95-30.86 131.63-30.86 130.31-30.86 129.64-31.59 128.97-32.32 128.97-33.42ZM147.81 0L143.3 0 143.3-22.92 139.12-22.92 139.12-26.42 143.3-26.42 143.3-29.13Q143.3-33.37 145.57-35.69 147.84-38.01 151.99-38.01L151.99-38.01Q153.55-38.01 155.09-37.6L155.09-37.6 154.84-33.94Q153.7-34.16 152.4-34.16L152.4-34.16Q150.2-34.16 149.01-32.87 147.81-31.59 147.81-29.2L147.81-29.2 147.81-26.42 153.45-26.42 153.45-22.92 147.81-22.92 147.81 0ZM160.48-26.42L167.07-6.62 173.22-26.42 178.06-26.42 167.44 4.08Q164.97 10.67 159.6 10.67L159.6 10.67 158.75 10.6 157.06 10.28 157.06 6.62 158.28 6.71Q160.58 6.71 161.86 5.79 163.14 4.86 163.97 2.39L163.97 2.39 164.97-0.29 155.55-26.42 160.48-26.42Z" opacity="1" transform="matrix(1,0,0,1,0,0)" fill="#ffffff" class="wordmark-text-0" data-fill-palette-color="primary" id="text-0"></path></svg></g></svg></g><g transform="matrix(1,0,0,1,0,83.51242875800662)"><svg viewBox="0 0 244.43135999999998 41.753647002650396" height="41.753647002650396" width="244.43135999999998"><g transform="matrix(1,0,0,1,0,0)"><svg width="244.43135999999998" viewBox="3 -39.65 285.89 50.5" height="41.753647002650396" data-palette-color="#8d021f"><path d="M3-34.55L20.15-34.55 19.5-29.8 9.35-29.8 9.35-19.9 18.2-19.9 18.2-15.2 9.35-15.2 9.35-4.8 20.15-4.8 20.15 0 3 0 3-34.55ZM47.43-6.4Q47.43-5.1 47.78-4.48 48.13-3.85 48.93-3.45L48.93-3.45 47.68 0.65Q45.63 0.4 44.41-0.45 43.18-1.3 42.58-3.05L42.58-3.05Q40.28 0.75 36.13 0.75L36.13 0.75Q32.83 0.75 30.88-1.48 28.93-3.7 28.93-7.4L28.93-7.4Q28.93-11.7 31.61-13.95 34.28-16.2 39.38-16.2L39.38-16.2 41.43-16.2 41.43-18.05Q41.43-20.55 40.56-21.58 39.68-22.6 37.73-22.6L37.73-22.6Q35.38-22.6 31.88-21.3L31.88-21.3 30.48-25.3Q32.48-26.2 34.63-26.68 36.78-27.15 38.73-27.15L38.73-27.15Q47.43-27.15 47.43-18.35L47.43-18.35 47.43-6.4ZM37.78-3.7Q40.18-3.7 41.43-7L41.43-7 41.43-12.55 39.98-12.55Q37.43-12.55 36.26-11.4 35.08-10.25 35.08-7.85L35.08-7.85Q35.08-5.8 35.78-4.75 36.48-3.7 37.78-3.7L37.78-3.7ZM66.61-27.15Q71.31-27.15 74.56-24.05L74.56-24.05 72.21-20.7Q70.81-21.7 69.56-22.2 68.31-22.7 67.01-22.7L67.01-22.7Q65.56-22.7 64.74-21.93 63.91-21.15 63.91-19.8L63.91-19.8Q63.91-18.45 64.84-17.63 65.76-16.8 68.56-15.7L68.56-15.7Q72.01-14.35 73.66-12.5 75.31-10.65 75.31-7.55L75.31-7.55Q75.31-3.7 72.61-1.48 69.91 0.75 65.76 0.75L65.76 0.75Q63.06 0.75 60.79-0.23 58.51-1.2 56.81-2.95L56.81-2.95 59.81-6.25Q62.61-3.8 65.51-3.8L65.51-3.8Q67.16-3.8 68.11-4.67 69.06-5.55 69.06-7.1L69.06-7.1Q69.06-8.25 68.66-8.97 68.26-9.7 67.26-10.33 66.26-10.95 64.26-11.7L64.26-11.7Q60.81-13.05 59.34-14.85 57.86-16.65 57.86-19.45L57.86-19.45Q57.86-22.8 60.24-24.98 62.61-27.15 66.61-27.15L66.61-27.15ZM103.84-26.45L96.84 0.1Q95.54 4.9 92.64 7.65 89.74 10.4 84.89 10.85L84.89 10.85 84.19 6.5Q87.34 5.85 88.92 4.42 90.49 3 91.39 0L91.39 0 89.09 0 82.39-26.45 88.64-26.45 93.04-4.1 97.74-26.45 103.84-26.45ZM136.7-34.55Q142.95-34.55 146.23-31.78 149.5-29 149.5-23.6L149.5-23.6Q149.5-17.85 146.28-15 143.05-12.15 137.15-12.15L137.15-12.15 135.15-12.15 135.15 0 128.8 0 128.8-34.55 136.7-34.55ZM136.8-16.9Q140.05-16.9 141.5-18.4 142.95-19.9 142.95-23.55L142.95-23.55Q142.95-26.85 141.5-28.35 140.05-29.85 136.85-29.85L136.85-29.85 135.15-29.85 135.15-16.9 136.8-16.9ZM170.78-27.1Q171.93-27.1 172.83-26.75L172.83-26.75 171.83-20.85Q170.83-21.1 169.98-21.1L169.98-21.1Q168.08-21.1 166.98-19.45 165.88-17.8 165.28-14.55L165.28-14.55 165.28 0 159.13 0 159.13-26.45 164.48-26.45 164.93-21.85Q166.78-27.1 170.78-27.1L170.78-27.1ZM191.12-27.15Q196.12-27.15 198.89-23.65 201.67-20.15 201.67-13.25L201.67-13.25Q201.67-6.65 198.87-2.95 196.07 0.75 191.12 0.75L191.12 0.75Q186.17 0.75 183.37-2.88 180.57-6.5 180.57-13.25L180.57-13.25Q180.57-19.95 183.37-23.55 186.17-27.15 191.12-27.15L191.12-27.15ZM191.12-22.5Q188.97-22.5 187.97-20.38 186.97-18.25 186.97-13.25L186.97-13.25Q186.97-8.2 187.97-6.08 188.97-3.95 191.12-3.95L191.12-3.95Q193.27-3.95 194.27-6.08 195.27-8.2 195.27-13.25L195.27-13.25Q195.27-18.3 194.27-20.4 193.27-22.5 191.12-22.5L191.12-22.5ZM221.95-33.05Q220.55-33.05 219.87-32.3 219.2-31.55 219.2-30L219.2-30 219.2-26.45 224.25-26.45 223.55-22 219.2-22 219.2 0 213.05 0 213.05-22 209.75-22 209.75-26.45 213.05-26.45 213.05-29.8Q213.05-33.4 215.15-35.55 217.25-37.7 221.15-37.7L221.15-37.7Q224.2-37.7 227.05-36.2L227.05-36.2 225.35-32.2Q223.6-33.05 221.95-33.05L221.95-33.05ZM233.08-26.45L239.23-26.45 239.23 0 233.08 0 233.08-26.45ZM236.13-39.65Q237.78-39.65 238.8-38.6 239.83-37.55 239.83-35.9L239.83-35.9Q239.83-34.3 238.8-33.25 237.78-32.2 236.13-32.2L236.13-32.2Q234.48-32.2 233.45-33.25 232.43-34.3 232.43-35.9L232.43-35.9Q232.43-37.55 233.45-38.6 234.48-39.65 236.13-39.65L236.13-39.65ZM262.11-5L264.26-1.2Q261.81 0.75 258.51 0.75L258.51 0.75Q255.06 0.75 253.26-1.23 251.46-3.2 251.46-6.6L251.46-6.6 251.46-22 248.36-22 248.36-26.45 251.46-26.45 251.46-32.3 257.61-33.05 257.61-26.45 262.61-26.45 262.01-22 257.61-22 257.61-6.6Q257.61-4.2 259.66-4.2L259.66-4.2Q260.31-4.2 260.81-4.38 261.31-4.55 262.11-5L262.11-5ZM280.19-27.15Q284.89-27.15 288.14-24.05L288.14-24.05 285.79-20.7Q284.39-21.7 283.14-22.2 281.89-22.7 280.59-22.7L280.59-22.7Q279.14-22.7 278.31-21.93 277.49-21.15 277.49-19.8L277.49-19.8Q277.49-18.45 278.41-17.63 279.34-16.8 282.14-15.7L282.14-15.7Q285.59-14.35 287.24-12.5 288.89-10.65 288.89-7.55L288.89-7.55Q288.89-3.7 286.19-1.48 283.49 0.75 279.34 0.75L279.34 0.75Q276.64 0.75 274.36-0.23 272.09-1.2 270.39-2.95L270.39-2.95 273.39-6.25Q276.19-3.8 279.09-3.8L279.09-3.8Q280.74-3.8 281.69-4.67 282.64-5.55 282.64-7.1L282.64-7.1Q282.64-8.25 282.24-8.97 281.84-9.7 280.84-10.33 279.84-10.95 277.84-11.7L277.84-11.7Q274.39-13.05 272.91-14.85 271.44-16.65 271.44-19.45L271.44-19.45Q271.44-22.8 273.81-24.98 276.19-27.15 280.19-27.15L280.19-27.15Z" opacity="1" transform="matrix(1,0,0,1,0,0)" fill="#8d021f" class="slogan-text-1" data-fill-palette-color="secondary" id="text-1"></path></svg></g></svg></g></svg></g></svg></g><g transform="matrix(1,0,0,1,0,22.509141983794393)"><svg viewBox="0 0 151.05858048 80.24779179306825" height="80.24779179306825" width="151.05858048"><g><svg xmlns="http://www.w3.org/2000/svg" xmlns:xlink="http://www.w3.org/1999/xlink" version="1.1" x="0" y="0" viewBox="33.99987292178789 42 32.00012707821211 16.999627078212107" enable-background="new 0 0 100 100" xml:space="preserve" height="80.24779179306825" width="151.05858048" class="icon-icon-0" data-fill-palette-color="accent" id="icon-0"><path d="M66 43.5V49.5A1.5 1.5 0 1 1 63 49.5V47.121L57.561 52.56A1.5 1.5 0 0 1 55.44 52.56L53 50.121 47.061 56.06A1.5 1.5 0 0 1 44.94 56.06L42 53.121 36.561 58.56A1.5 1.5 0 0 1 34.439 56.439L40.939 49.939A1.5 1.5 0 0 1 43.06 49.939L46 52.879 51.939 46.94A1.5 1.5 0 0 1 54.06 46.94L56.498 49.379 60.879 45H58.5A1.5 1.5 0 1 1 58.5 42H64.5A1.5 1.5 0 0 1 66 43.5" fill="#8d021f" data-fill-palette-color="accent"></path></svg></g></svg></g></svg></g></svg></g></svg></g><path d="M212.635 80.39L212.635 18.086 1.606 18.086 1.606 229.114 212.635 229.114 212.635 166.81 209.015 166.81 209.015 225.495 5.226 225.495 5.226 21.705 209.015 21.705 209.015 80.39Z" fill="#ffffff" stroke="transparent" data-fill-palette-color="tertiary"></path></svg></g><defs></defs></svg><rect width="395.52" height="247.2" fill="none" stroke="none" visibility="hidden"></rect></g></svg></g></svg>